solid OpenSCAD_Model
  facet normal -0.661312 0.750111 0
    outer loop
      vertex -66.1355 0 0
      vertex -66.1355 0 15
      vertex -65.3421 0.699506 0
    endloop
  endfacet
  facet normal -0.661312 0.750111 0
    outer loop
      vertex -65.3421 0.699506 0
      vertex -66.1355 0 15
      vertex -65.3421 0.699506 15
    endloop
  endfacet
  facet normal 0 -1 0
    outer loop
      vertex -66.1355 0 15
      vertex -66.1355 0 0
      vertex -40 0 0
    endloop
  endfacet
  facet normal 0 -1 0
    outer loop
      vertex -49 0 6
      vertex -66.1355 0 15
      vertex -40 0 0
    endloop
  endfacet
  facet normal 0 -1 0
    outer loop
      vertex -46 0 6
      vertex -49 0 6
      vertex -40 0 0
    endloop
  endfacet
  facet normal 0 -1 0
    outer loop
      vertex -49 0 9
      vertex -66.1355 0 15
      vertex -49 0 6
    endloop
  endfacet
  facet normal 0 -1 0
    outer loop
      vertex -40 0 15
      vertex -66.1355 0 15
      vertex -49 0 9
    endloop
  endfacet
  facet normal 0 -1 0
    outer loop
      vertex -40 0 15
      vertex -46 0 9
      vertex -40 0 0
    endloop
  endfacet
  facet normal 0 -1 0
    outer loop
      vertex -40 0 15
      vertex -49 0 9
      vertex -46 0 9
    endloop
  endfacet
  facet normal 0 -1 0
    outer loop
      vertex -46 0 9
      vertex -46 0 6
      vertex -40 0 0
    endloop
  endfacet
  facet normal -0 0 -1
    outer loop
      vertex -66.1355 0 0
      vertex -65.3421 0.699506 0
      vertex -40 0 0
    endloop
  endfacet
  facet normal 0 0 -1
    outer loop
      vertex -40 0 0
      vertex -65.3421 0.699506 0
      vertex -63.7424 2.05132 0
    endloop
  endfacet
  facet normal 0 0 -1
    outer loop
      vertex -40 0 0
      vertex -63.7424 2.05132 0
      vertex -62.1148 3.36935 0
    endloop
  endfacet
  facet normal 0 0 -1
    outer loop
      vertex -40 0 0
      vertex -62.1148 3.36935 0
      vertex -60.4599 4.65299 0
    endloop
  endfacet
  facet normal 0 0 -1
    outer loop
      vertex -40 0 0
      vertex -60.4599 4.65299 0
      vertex -58.7785 5.9017 0
    endloop
  endfacet
  facet normal 0 0 -1
    outer loop
      vertex -40 0 0
      vertex -58.7785 5.9017 0
      vertex -57.0714 7.11492 0
    endloop
  endfacet
  facet normal 0 0 -1
    outer loop
      vertex -40 0 0
      vertex -57.0714 7.11492 0
      vertex -55.3392 8.29212 0
    endloop
  endfacet
  facet normal 0 0 -1
    outer loop
      vertex -40 0 0
      vertex -55.3392 8.29212 0
      vertex -53.5827 9.43279 0
    endloop
  endfacet
  facet normal 0 0 -1
    outer loop
      vertex -40 0 0
      vertex -53.5827 9.43279 0
      vertex -51.8027 10.5364 0
    endloop
  endfacet
  facet normal 0 0 -1
    outer loop
      vertex -40 0 0
      vertex -51.8027 10.5364 0
      vertex -50 11.6025 0
    endloop
  endfacet
  facet normal 0 0 -1
    outer loop
      vertex -40 0 0
      vertex -50 11.6025 0
      vertex -48.1754 12.6307 0
    endloop
  endfacet
  facet normal 0 0 -1
    outer loop
      vertex -40 0 0
      vertex -48.1754 12.6307 0
      vertex -46.3296 13.6204 0
    endloop
  endfacet
  facet normal 0 0 -1
    outer loop
      vertex -40 0 0
      vertex -46.3296 13.6204 0
      vertex -44.4635 14.5712 0
    endloop
  endfacet
  facet normal 0 0 -1
    outer loop
      vertex -40 0 0
      vertex -44.4635 14.5712 0
      vertex -42.5779 15.4827 0
    endloop
  endfacet
  facet normal 0 0 -1
    outer loop
      vertex -40 0 0
      vertex -42.5779 15.4827 0
      vertex -40.6737 16.3545 0
    endloop
  endfacet
  facet normal 0 -0 -1
    outer loop
      vertex -40 11.1642 0
      vertex -40.6737 16.3545 0
      vertex -38.7516 17.1863 0
    endloop
  endfacet
  facet normal 0 -0 -1
    outer loop
      vertex -38.64 11.7868 0
      vertex -38.7516 17.1863 0
      vertex -36.8125 17.9776 0
    endloop
  endfacet
  facet normal 0 0 -1
    outer loop
      vertex -36.814 12.577 0
      vertex -36.8125 17.9776 0
      vertex -34.8572 18.7282 0
    endloop
  endfacet
  facet normal 0 0 -1
    outer loop
      vertex -34.9718 13.3288 0
      vertex -32.8867 19.4376 0
      vertex -30.9017 20.1057 0
    endloop
  endfacet
  facet normal 0 0 -1
    outer loop
      vertex -33.1143 14.0418 0
      vertex -30.9017 20.1057 0
      vertex -28.9032 20.7319 0
    endloop
  endfacet
  facet normal 0 0 -1
    outer loop
      vertex -31.2423 14.7158 0
      vertex -28.9032 20.7319 0
      vertex -26.892 21.3163 0
    endloop
  endfacet
  facet normal 0 0 -1
    outer loop
      vertex -29.3566 15.3504 0
      vertex -24.869 21.8583 0
      vertex -22.8351 22.3579 0
    endloop
  endfacet
  facet normal 0 0 -1
    outer loop
      vertex -27.458 15.9454 0
      vertex -22.8351 22.3579 0
      vertex -20.7912 22.8148 0
    endloop
  endfacet
  facet normal 0 0 -1
    outer loop
      vertex -25.5474 16.5004 0
      vertex -20.7912 22.8148 0
      vertex -18.7381 23.2287 0
    endloop
  endfacet
  facet normal 0 0 -1
    outer loop
      vertex -23.6255 17.0154 0
      vertex -18.7381 23.2287 0
      vertex -16.6769 23.5996 0
    endloop
  endfacet
  facet normal 0 0 -1
    outer loop
      vertex -21.6933 17.49 0
      vertex -16.6769 23.5996 0
      vertex -14.6083 23.9272 0
    endloop
  endfacet
  facet normal 0 0 -1
    outer loop
      vertex -19.7516 17.924 0
      vertex -14.6083 23.9272 0
      vertex -12.5333 24.2115 0
    endloop
  endfacet
  facet normal 0 0 -1
    outer loop
      vertex -17.8012 18.3173 0
      vertex -10.4528 24.4522 0
      vertex -8.36778 24.6493 0
    endloop
  endfacet
  facet normal 0 0 -1
    outer loop
      vertex -15.843 18.6696 0
      vertex -8.36778 24.6493 0
      vertex -6.27905 24.8027 0
    endloop
  endfacet
  facet normal 0 0 -1
    outer loop
      vertex -13.8779 18.9809 0
      vertex -6.27905 24.8027 0
      vertex -4.18757 24.9123 0
    endloop
  endfacet
  facet normal 0 0 -1
    outer loop
      vertex -11.9067 19.2509 0
      vertex -4.18757 24.9123 0
      vertex -2.09424 24.9781 0
    endloop
  endfacet
  facet normal 0 0 -1
    outer loop
      vertex -9.9302 19.4796 0
      vertex -2.09424 24.9781 0
      vertex 0 25 0
    endloop
  endfacet
  facet normal 0 0 -1
    outer loop
      vertex -7.94939 19.6668 0
      vertex 0 25 0
      vertex 2.09424 24.9781 0
    endloop
  endfacet
  facet normal 0 0 -1
    outer loop
      vertex -5.9651 19.8125 0
      vertex 2.09424 24.9781 0
      vertex 4.18757 24.9123 0
    endloop
  endfacet
  facet normal 0 0 -1
    outer loop
      vertex -3.97819 19.9167 0
      vertex 4.18757 24.9123 0
      vertex 6.27905 24.8027 0
    endloop
  endfacet
  facet normal 0 0 -1
    outer loop
      vertex -1.98953 19.9792 0
      vertex 6.27905 24.8027 0
      vertex 8.36778 24.6493 0
    endloop
  endfacet
  facet normal 0 0 -1
    outer loop
      vertex 0 20 0
      vertex 8.36778 24.6493 0
      vertex 10.4528 24.4522 0
    endloop
  endfacet
  facet normal 0 0 -1
    outer loop
      vertex 1.98953 19.9792 0
      vertex 10.4528 24.4522 0
      vertex 12.5333 24.2115 0
    endloop
  endfacet
  facet normal 0 0 -1
    outer loop
      vertex 3.97819 19.9167 0
      vertex 12.5333 24.2115 0
      vertex 14.6083 23.9272 0
    endloop
  endfacet
  facet normal 0 0 -1
    outer loop
      vertex 5.9651 19.8125 0
      vertex 14.6083 23.9272 0
      vertex 16.6769 23.5996 0
    endloop
  endfacet
  facet normal 0 0 -1
    outer loop
      vertex 7.94939 19.6668 0
      vertex 16.6769 23.5996 0
      vertex 18.7381 23.2287 0
    endloop
  endfacet
  facet normal 0 0 -1
    outer loop
      vertex 9.9302 19.4796 0
      vertex 18.7381 23.2287 0
      vertex 20.7912 22.8148 0
    endloop
  endfacet
  facet normal 0 0 -1
    outer loop
      vertex 11.9067 19.2509 0
      vertex 20.7912 22.8148 0
      vertex 22.8351 22.3579 0
    endloop
  endfacet
  facet normal 0 0 -1
    outer loop
      vertex 13.8779 18.9809 0
      vertex 22.8351 22.3579 0
      vertex 24.869 21.8583 0
    endloop
  endfacet
  facet normal 0 0 -1
    outer loop
      vertex 15.843 18.6696 0
      vertex 24.869 21.8583 0
      vertex 26.892 21.3163 0
    endloop
  endfacet
  facet normal 0 0 -1
    outer loop
      vertex 17.8012 18.3173 0
      vertex 26.892 21.3163 0
      vertex 28.9032 20.7319 0
    endloop
  endfacet
  facet normal 0 0 -1
    outer loop
      vertex 19.7516 17.924 0
      vertex 28.9032 20.7319 0
      vertex 30.9017 20.1057 0
    endloop
  endfacet
  facet normal 0 0 -1
    outer loop
      vertex 23.6255 17.0154 0
      vertex 30.9017 20.1057 0
      vertex 32.8867 19.4376 0
    endloop
  endfacet
  facet normal 0 0 -1
    outer loop
      vertex 25.5474 16.5004 0
      vertex 32.8867 19.4376 0
      vertex 34.8572 18.7282 0
    endloop
  endfacet
  facet normal 0 0 -1
    outer loop
      vertex 27.458 15.9454 0
      vertex 34.8572 18.7282 0
      vertex 36.8125 17.9776 0
    endloop
  endfacet
  facet normal 0 0 -1
    outer loop
      vertex 29.3566 15.3504 0
      vertex 36.8125 17.9776 0
      vertex 38.7516 17.1863 0
    endloop
  endfacet
  facet normal 0 0 -1
    outer loop
      vertex 31.2423 14.7158 0
      vertex 38.7516 17.1863 0
      vertex 40.6737 16.3545 0
    endloop
  endfacet
  facet normal 0 0 -1
    outer loop
      vertex 33.1143 14.0418 0
      vertex 40.6737 16.3545 0
      vertex 42.5779 15.4827 0
    endloop
  endfacet
  facet normal 0 0 -1
    outer loop
      vertex 34.9718 13.3288 0
      vertex 42.5779 15.4827 0
      vertex 44.4635 14.5712 0
    endloop
  endfacet
  facet normal 0 0 -1
    outer loop
      vertex 36.814 12.577 0
      vertex 44.4635 14.5712 0
      vertex 46.3296 13.6204 0
    endloop
  endfacet
  facet normal 0 0 -1
    outer loop
      vertex 38.64 11.7868 0
      vertex 46.3296 13.6204 0
      vertex 48.1754 12.6307 0
    endloop
  endfacet
  facet normal 0 0 -1
    outer loop
      vertex 40 11.1642 0
      vertex 48.1754 12.6307 0
      vertex 50 11.6025 0
    endloop
  endfacet
  facet normal -0 0 -1
    outer loop
      vertex 40 0 0
      vertex 65.3421 0.699506 0
      vertex 66.1355 0 0
    endloop
  endfacet
  facet normal -0 0 -1
    outer loop
      vertex 38.64 11.7868 0
      vertex 48.1754 12.6307 0
      vertex 40 11.1642 0
    endloop
  endfacet
  facet normal -0 0 -1
    outer loop
      vertex 36.814 12.577 0
      vertex 46.3296 13.6204 0
      vertex 38.64 11.7868 0
    endloop
  endfacet
  facet normal -0 0 -1
    outer loop
      vertex 34.9718 13.3288 0
      vertex 44.4635 14.5712 0
      vertex 36.814 12.577 0
    endloop
  endfacet
  facet normal -0 0 -1
    outer loop
      vertex 33.1143 14.0418 0
      vertex 42.5779 15.4827 0
      vertex 34.9718 13.3288 0
    endloop
  endfacet
  facet normal -0 0 -1
    outer loop
      vertex 31.2423 14.7158 0
      vertex 40.6737 16.3545 0
      vertex 33.1143 14.0418 0
    endloop
  endfacet
  facet normal -0 0 -1
    outer loop
      vertex 29.3566 15.3504 0
      vertex 38.7516 17.1863 0
      vertex 31.2423 14.7158 0
    endloop
  endfacet
  facet normal -0 0 -1
    outer loop
      vertex 27.458 15.9454 0
      vertex 36.8125 17.9776 0
      vertex 29.3566 15.3504 0
    endloop
  endfacet
  facet normal -0 0 -1
    outer loop
      vertex 25.5474 16.5004 0
      vertex 34.8572 18.7282 0
      vertex 27.458 15.9454 0
    endloop
  endfacet
  facet normal -0 0 -1
    outer loop
      vertex 23.6255 17.0154 0
      vertex 32.8867 19.4376 0
      vertex 25.5474 16.5004 0
    endloop
  endfacet
  facet normal -0 0 -1
    outer loop
      vertex 21.6933 17.49 0
      vertex 30.9017 20.1057 0
      vertex 23.6255 17.0154 0
    endloop
  endfacet
  facet normal -0 0 -1
    outer loop
      vertex 19.7516 17.924 0
      vertex 30.9017 20.1057 0
      vertex 21.6933 17.49 0
    endloop
  endfacet
  facet normal -0 0 -1
    outer loop
      vertex 17.8012 18.3173 0
      vertex 28.9032 20.7319 0
      vertex 19.7516 17.924 0
    endloop
  endfacet
  facet normal -0 0 -1
    outer loop
      vertex 15.843 18.6696 0
      vertex 26.892 21.3163 0
      vertex 17.8012 18.3173 0
    endloop
  endfacet
  facet normal -0 0 -1
    outer loop
      vertex 13.8779 18.9809 0
      vertex 24.869 21.8583 0
      vertex 15.843 18.6696 0
    endloop
  endfacet
  facet normal -0 0 -1
    outer loop
      vertex 11.9067 19.2509 0
      vertex 22.8351 22.3579 0
      vertex 13.8779 18.9809 0
    endloop
  endfacet
  facet normal -0 0 -1
    outer loop
      vertex 9.9302 19.4796 0
      vertex 20.7912 22.8148 0
      vertex 11.9067 19.2509 0
    endloop
  endfacet
  facet normal -0 0 -1
    outer loop
      vertex 7.94939 19.6668 0
      vertex 18.7381 23.2287 0
      vertex 9.9302 19.4796 0
    endloop
  endfacet
  facet normal -0 0 -1
    outer loop
      vertex 5.9651 19.8125 0
      vertex 16.6769 23.5996 0
      vertex 7.94939 19.6668 0
    endloop
  endfacet
  facet normal -0 0 -1
    outer loop
      vertex 3.97819 19.9167 0
      vertex 14.6083 23.9272 0
      vertex 5.9651 19.8125 0
    endloop
  endfacet
  facet normal -0 0 -1
    outer loop
      vertex 1.98953 19.9792 0
      vertex 12.5333 24.2115 0
      vertex 3.97819 19.9167 0
    endloop
  endfacet
  facet normal -0 0 -1
    outer loop
      vertex 0 20 0
      vertex 10.4528 24.4522 0
      vertex 1.98953 19.9792 0
    endloop
  endfacet
  facet normal 0 0 -1
    outer loop
      vertex -1.98953 19.9792 0
      vertex 8.36778 24.6493 0
      vertex 0 20 0
    endloop
  endfacet
  facet normal 0 0 -1
    outer loop
      vertex -3.97819 19.9167 0
      vertex 6.27905 24.8027 0
      vertex -1.98953 19.9792 0
    endloop
  endfacet
  facet normal 0 0 -1
    outer loop
      vertex -5.9651 19.8125 0
      vertex 4.18757 24.9123 0
      vertex -3.97819 19.9167 0
    endloop
  endfacet
  facet normal 0 0 -1
    outer loop
      vertex -7.94939 19.6668 0
      vertex 2.09424 24.9781 0
      vertex -5.9651 19.8125 0
    endloop
  endfacet
  facet normal 0 0 -1
    outer loop
      vertex -9.9302 19.4796 0
      vertex 0 25 0
      vertex -7.94939 19.6668 0
    endloop
  endfacet
  facet normal 0 0 -1
    outer loop
      vertex -11.9067 19.2509 0
      vertex -2.09424 24.9781 0
      vertex -9.9302 19.4796 0
    endloop
  endfacet
  facet normal 0 0 -1
    outer loop
      vertex -13.8779 18.9809 0
      vertex -4.18757 24.9123 0
      vertex -11.9067 19.2509 0
    endloop
  endfacet
  facet normal 0 0 -1
    outer loop
      vertex -15.843 18.6696 0
      vertex -6.27905 24.8027 0
      vertex -13.8779 18.9809 0
    endloop
  endfacet
  facet normal 0 0 -1
    outer loop
      vertex -19.7516 17.924 0
      vertex -10.4528 24.4522 0
      vertex -17.8012 18.3173 0
    endloop
  endfacet
  facet normal 0 0 -1
    outer loop
      vertex -17.8012 18.3173 0
      vertex -8.36778 24.6493 0
      vertex -15.843 18.6696 0
    endloop
  endfacet
  facet normal 0 0 -1
    outer loop
      vertex -19.7516 17.924 0
      vertex -12.5333 24.2115 0
      vertex -10.4528 24.4522 0
    endloop
  endfacet
  facet normal 0 0 -1
    outer loop
      vertex -21.6933 17.49 0
      vertex -14.6083 23.9272 0
      vertex -19.7516 17.924 0
    endloop
  endfacet
  facet normal 0 0 -1
    outer loop
      vertex -23.6255 17.0154 0
      vertex -16.6769 23.5996 0
      vertex -21.6933 17.49 0
    endloop
  endfacet
  facet normal 0 0 -1
    outer loop
      vertex -25.5474 16.5004 0
      vertex -18.7381 23.2287 0
      vertex -23.6255 17.0154 0
    endloop
  endfacet
  facet normal 0 0 -1
    outer loop
      vertex -27.458 15.9454 0
      vertex -20.7912 22.8148 0
      vertex -25.5474 16.5004 0
    endloop
  endfacet
  facet normal 0 0 -1
    outer loop
      vertex -31.2423 14.7158 0
      vertex -24.869 21.8583 0
      vertex -29.3566 15.3504 0
    endloop
  endfacet
  facet normal 0 0 -1
    outer loop
      vertex -29.3566 15.3504 0
      vertex -22.8351 22.3579 0
      vertex -27.458 15.9454 0
    endloop
  endfacet
  facet normal 0 0 -1
    outer loop
      vertex -31.2423 14.7158 0
      vertex -26.892 21.3163 0
      vertex -24.869 21.8583 0
    endloop
  endfacet
  facet normal 0 0 -1
    outer loop
      vertex -33.1143 14.0418 0
      vertex -28.9032 20.7319 0
      vertex -31.2423 14.7158 0
    endloop
  endfacet
  facet normal 0 0 -1
    outer loop
      vertex -36.814 12.577 0
      vertex -32.8867 19.4376 0
      vertex -34.9718 13.3288 0
    endloop
  endfacet
  facet normal 0 0 -1
    outer loop
      vertex -34.9718 13.3288 0
      vertex -30.9017 20.1057 0
      vertex -33.1143 14.0418 0
    endloop
  endfacet
  facet normal 0 0 -1
    outer loop
      vertex -36.814 12.577 0
      vertex -34.8572 18.7282 0
      vertex -32.8867 19.4376 0
    endloop
  endfacet
  facet normal 0 0 -1
    outer loop
      vertex -38.64 11.7868 0
      vertex -36.8125 17.9776 0
      vertex -36.814 12.577 0
    endloop
  endfacet
  facet normal 0 0 -1
    outer loop
      vertex -40 11.1642 0
      vertex -38.7516 17.1863 0
      vertex -38.64 11.7868 0
    endloop
  endfacet
  facet normal 0 0 -1
    outer loop
      vertex -40 0 0
      vertex -40.6737 16.3545 0
      vertex -40 11.1642 0
    endloop
  endfacet
  facet normal -0 0 -1
    outer loop
      vertex 40 11.1642 0
      vertex 50 11.6025 0
      vertex 51.8027 10.5364 0
    endloop
  endfacet
  facet normal 0 0 -1
    outer loop
      vertex 40 11.1642 0
      vertex 51.8027 10.5364 0
      vertex 53.5827 9.43279 0
    endloop
  endfacet
  facet normal 0 0 -1
    outer loop
      vertex 40 11.1642 0
      vertex 53.5827 9.43279 0
      vertex 55.3392 8.29212 0
    endloop
  endfacet
  facet normal 0 0 -1
    outer loop
      vertex 40 11.1642 0
      vertex 55.3392 8.29212 0
      vertex 57.0714 7.11492 0
    endloop
  endfacet
  facet normal 0 0 -1
    outer loop
      vertex 40 11.1642 0
      vertex 57.0714 7.11492 0
      vertex 58.7785 5.9017 0
    endloop
  endfacet
  facet normal 0 0 -1
    outer loop
      vertex 40 11.1642 0
      vertex 58.7785 5.9017 0
      vertex 60.4599 4.65299 0
    endloop
  endfacet
  facet normal 0 0 -1
    outer loop
      vertex 40 11.1642 0
      vertex 60.4599 4.65299 0
      vertex 62.1148 3.36935 0
    endloop
  endfacet
  facet normal 0 0 -1
    outer loop
      vertex 40 11.1642 0
      vertex 62.1148 3.36935 0
      vertex 63.7424 2.05132 0
    endloop
  endfacet
  facet normal 0 0 -1
    outer loop
      vertex 40 11.1642 0
      vertex 63.7424 2.05132 0
      vertex 65.3421 0.699506 0
    endloop
  endfacet
  facet normal 0 0 -1
    outer loop
      vertex 40 11.1642 0
      vertex 65.3421 0.699506 0
      vertex 40 0 0
    endloop
  endfacet
  facet normal -0.645458 0.763796 0
    outer loop
      vertex -65.3421 0.699506 0
      vertex -65.3421 0.699506 15
      vertex -63.7424 2.05132 0
    endloop
  endfacet
  facet normal -0.645458 0.763796 0
    outer loop
      vertex -63.7424 2.05132 0
      vertex -65.3421 0.699506 15
      vertex -63.7424 2.05132 15
    endloop
  endfacet
  facet normal 0 -0 1
    outer loop
      vertex -65.3421 0.699506 15
      vertex -66.1355 0 15
      vertex -40 0 15
    endloop
  endfacet
  facet normal 0 0 1
    outer loop
      vertex -38.64 11.7868 15
      vertex -65.3421 0.699506 15
      vertex -40 11.1642 15
    endloop
  endfacet
  facet normal 0 0 1
    outer loop
      vertex -40 11.1642 15
      vertex -65.3421 0.699506 15
      vertex -40 0 15
    endloop
  endfacet
  facet normal 0 0 1
    outer loop
      vertex -36.814 12.577 15
      vertex -65.3421 0.699506 15
      vertex -38.64 11.7868 15
    endloop
  endfacet
  facet normal 0 0 1
    outer loop
      vertex -8.36778 24.6493 15
      vertex -65.3421 0.699506 15
      vertex -36.814 12.577 15
    endloop
  endfacet
  facet normal 0 0 1
    outer loop
      vertex -8.36778 24.6493 15
      vertex -36.814 12.577 15
      vertex -34.9718 13.3288 15
    endloop
  endfacet
  facet normal 0 0 1
    outer loop
      vertex -6.27905 24.8027 15
      vertex -34.9718 13.3288 15
      vertex -33.1143 14.0418 15
    endloop
  endfacet
  facet normal 0 0 1
    outer loop
      vertex -4.18757 24.9123 15
      vertex -33.1143 14.0418 15
      vertex -31.2423 14.7158 15
    endloop
  endfacet
  facet normal 0 0 1
    outer loop
      vertex -2.09424 24.9781 15
      vertex -31.2423 14.7158 15
      vertex -29.3566 15.3504 15
    endloop
  endfacet
  facet normal 0 0 1
    outer loop
      vertex 0 25 15
      vertex -29.3566 15.3504 15
      vertex -27.458 15.9454 15
    endloop
  endfacet
  facet normal 0 0 1
    outer loop
      vertex 2.09424 24.9781 15
      vertex -27.458 15.9454 15
      vertex -25.5474 16.5004 15
    endloop
  endfacet
  facet normal 0 0 1
    outer loop
      vertex 4.18757 24.9123 15
      vertex -25.5474 16.5004 15
      vertex -23.6255 17.0154 15
    endloop
  endfacet
  facet normal 0 0 1
    outer loop
      vertex 6.27905 24.8027 15
      vertex -23.6255 17.0154 15
      vertex -21.6933 17.49 15
    endloop
  endfacet
  facet normal 0 0 1
    outer loop
      vertex 8.36778 24.6493 15
      vertex -21.6933 17.49 15
      vertex -19.7516 17.924 15
    endloop
  endfacet
  facet normal 0 0 1
    outer loop
      vertex 10.4528 24.4522 15
      vertex -19.7516 17.924 15
      vertex -17.8012 18.3173 15
    endloop
  endfacet
  facet normal 0 0 1
    outer loop
      vertex 12.5333 24.2115 15
      vertex -17.8012 18.3173 15
      vertex -15.843 18.6696 15
    endloop
  endfacet
  facet normal 0 0 1
    outer loop
      vertex 14.6083 23.9272 15
      vertex -15.843 18.6696 15
      vertex -13.8779 18.9809 15
    endloop
  endfacet
  facet normal 0 0 1
    outer loop
      vertex 16.6769 23.5996 15
      vertex -13.8779 18.9809 15
      vertex -11.9067 19.2509 15
    endloop
  endfacet
  facet normal 0 0 1
    outer loop
      vertex 18.7381 23.2287 15
      vertex -11.9067 19.2509 15
      vertex -9.9302 19.4796 15
    endloop
  endfacet
  facet normal 0 0 1
    outer loop
      vertex 20.7912 22.8148 15
      vertex -9.9302 19.4796 15
      vertex -7.94939 19.6668 15
    endloop
  endfacet
  facet normal 0 0 1
    outer loop
      vertex 22.8351 22.3579 15
      vertex -7.94939 19.6668 15
      vertex -5.9651 19.8125 15
    endloop
  endfacet
  facet normal 0 0 1
    outer loop
      vertex 24.869 21.8583 15
      vertex -5.9651 19.8125 15
      vertex -3.97819 19.9167 15
    endloop
  endfacet
  facet normal 0 0 1
    outer loop
      vertex 26.892 21.3163 15
      vertex -3.97819 19.9167 15
      vertex -1.98953 19.9792 15
    endloop
  endfacet
  facet normal 0 0 1
    outer loop
      vertex 28.9032 20.7319 15
      vertex -1.98953 19.9792 15
      vertex 0 20 15
    endloop
  endfacet
  facet normal 0 0 1
    outer loop
      vertex 30.9017 20.1057 15
      vertex 0 20 15
      vertex 1.98953 19.9792 15
    endloop
  endfacet
  facet normal 0 0 1
    outer loop
      vertex 32.8867 19.4376 15
      vertex 1.98953 19.9792 15
      vertex 3.97819 19.9167 15
    endloop
  endfacet
  facet normal 0 0 1
    outer loop
      vertex 34.8572 18.7282 15
      vertex 3.97819 19.9167 15
      vertex 5.9651 19.8125 15
    endloop
  endfacet
  facet normal 0 0 1
    outer loop
      vertex 36.8125 17.9776 15
      vertex 5.9651 19.8125 15
      vertex 7.94939 19.6668 15
    endloop
  endfacet
  facet normal 0 0 1
    outer loop
      vertex 38.7516 17.1863 15
      vertex 7.94939 19.6668 15
      vertex 9.9302 19.4796 15
    endloop
  endfacet
  facet normal 0 0 1
    outer loop
      vertex 40.6737 16.3545 15
      vertex 9.9302 19.4796 15
      vertex 11.9067 19.2509 15
    endloop
  endfacet
  facet normal 0 0 1
    outer loop
      vertex 42.5779 15.4827 15
      vertex 11.9067 19.2509 15
      vertex 13.8779 18.9809 15
    endloop
  endfacet
  facet normal 0 0 1
    outer loop
      vertex 44.4635 14.5712 15
      vertex 13.8779 18.9809 15
      vertex 15.843 18.6696 15
    endloop
  endfacet
  facet normal 0 0 1
    outer loop
      vertex 46.3296 13.6204 15
      vertex 15.843 18.6696 15
      vertex 17.8012 18.3173 15
    endloop
  endfacet
  facet normal 0 0 1
    outer loop
      vertex 48.1754 12.6307 15
      vertex 17.8012 18.3173 15
      vertex 19.7516 17.924 15
    endloop
  endfacet
  facet normal 0 0 1
    outer loop
      vertex 50 11.6025 15
      vertex 19.7516 17.924 15
      vertex 21.6933 17.49 15
    endloop
  endfacet
  facet normal 0 0 1
    outer loop
      vertex 51.8027 10.5364 15
      vertex 21.6933 17.49 15
      vertex 23.6255 17.0154 15
    endloop
  endfacet
  facet normal 0 0 1
    outer loop
      vertex 53.5827 9.43279 15
      vertex 23.6255 17.0154 15
      vertex 25.5474 16.5004 15
    endloop
  endfacet
  facet normal 0 0 1
    outer loop
      vertex 55.3392 8.29212 15
      vertex 25.5474 16.5004 15
      vertex 27.458 15.9454 15
    endloop
  endfacet
  facet normal 0 0 1
    outer loop
      vertex 57.0714 7.11492 15
      vertex 27.458 15.9454 15
      vertex 29.3566 15.3504 15
    endloop
  endfacet
  facet normal 0 0 1
    outer loop
      vertex 58.7785 5.9017 15
      vertex 29.3566 15.3504 15
      vertex 31.2423 14.7158 15
    endloop
  endfacet
  facet normal 0 0 1
    outer loop
      vertex 60.4599 4.65299 15
      vertex 31.2423 14.7158 15
      vertex 33.1143 14.0418 15
    endloop
  endfacet
  facet normal 0 0 1
    outer loop
      vertex 62.1148 3.36935 15
      vertex 33.1143 14.0418 15
      vertex 34.9718 13.3288 15
    endloop
  endfacet
  facet normal 0 0 1
    outer loop
      vertex 63.7424 2.05132 15
      vertex 34.9718 13.3288 15
      vertex 36.814 12.577 15
    endloop
  endfacet
  facet normal 0 0 1
    outer loop
      vertex 66.1355 0 15
      vertex 36.814 12.577 15
      vertex 38.64 11.7868 15
    endloop
  endfacet
  facet normal 0 0 1
    outer loop
      vertex 66.1355 0 15
      vertex 38.64 11.7868 15
      vertex 40 11.1642 15
    endloop
  endfacet
  facet normal -0 0 1
    outer loop
      vertex 66.1355 0 15
      vertex 40 11.1642 15
      vertex 40 0 15
    endloop
  endfacet
  facet normal -0 -0 1
    outer loop
      vertex 65.3421 0.699506 15
      vertex 36.814 12.577 15
      vertex 66.1355 0 15
    endloop
  endfacet
  facet normal -0 -0 1
    outer loop
      vertex 63.7424 2.05132 15
      vertex 36.814 12.577 15
      vertex 65.3421 0.699506 15
    endloop
  endfacet
  facet normal -0 -0 1
    outer loop
      vertex 62.1148 3.36935 15
      vertex 34.9718 13.3288 15
      vertex 63.7424 2.05132 15
    endloop
  endfacet
  facet normal -0 -0 1
    outer loop
      vertex 60.4599 4.65299 15
      vertex 33.1143 14.0418 15
      vertex 62.1148 3.36935 15
    endloop
  endfacet
  facet normal -0 -0 1
    outer loop
      vertex 58.7785 5.9017 15
      vertex 31.2423 14.7158 15
      vertex 60.4599 4.65299 15
    endloop
  endfacet
  facet normal -0 -0 1
    outer loop
      vertex 57.0714 7.11492 15
      vertex 29.3566 15.3504 15
      vertex 58.7785 5.9017 15
    endloop
  endfacet
  facet normal -0 -0 1
    outer loop
      vertex 55.3392 8.29212 15
      vertex 27.458 15.9454 15
      vertex 57.0714 7.11492 15
    endloop
  endfacet
  facet normal -0 -0 1
    outer loop
      vertex 53.5827 9.43279 15
      vertex 25.5474 16.5004 15
      vertex 55.3392 8.29212 15
    endloop
  endfacet
  facet normal -0 -0 1
    outer loop
      vertex 51.8027 10.5364 15
      vertex 23.6255 17.0154 15
      vertex 53.5827 9.43279 15
    endloop
  endfacet
  facet normal -0 -0 1
    outer loop
      vertex 50 11.6025 15
      vertex 21.6933 17.49 15
      vertex 51.8027 10.5364 15
    endloop
  endfacet
  facet normal -0 -0 1
    outer loop
      vertex 48.1754 12.6307 15
      vertex 19.7516 17.924 15
      vertex 50 11.6025 15
    endloop
  endfacet
  facet normal -0 -0 1
    outer loop
      vertex 46.3296 13.6204 15
      vertex 17.8012 18.3173 15
      vertex 48.1754 12.6307 15
    endloop
  endfacet
  facet normal -0 -0 1
    outer loop
      vertex 44.4635 14.5712 15
      vertex 15.843 18.6696 15
      vertex 46.3296 13.6204 15
    endloop
  endfacet
  facet normal -0 -0 1
    outer loop
      vertex 42.5779 15.4827 15
      vertex 13.8779 18.9809 15
      vertex 44.4635 14.5712 15
    endloop
  endfacet
  facet normal -0 -0 1
    outer loop
      vertex 40.6737 16.3545 15
      vertex 11.9067 19.2509 15
      vertex 42.5779 15.4827 15
    endloop
  endfacet
  facet normal -0 -0 1
    outer loop
      vertex 38.7516 17.1863 15
      vertex 9.9302 19.4796 15
      vertex 40.6737 16.3545 15
    endloop
  endfacet
  facet normal -0 -0 1
    outer loop
      vertex 36.8125 17.9776 15
      vertex 7.94939 19.6668 15
      vertex 38.7516 17.1863 15
    endloop
  endfacet
  facet normal -0 -0 1
    outer loop
      vertex 34.8572 18.7282 15
      vertex 5.9651 19.8125 15
      vertex 36.8125 17.9776 15
    endloop
  endfacet
  facet normal -0 -0 1
    outer loop
      vertex 32.8867 19.4376 15
      vertex 3.97819 19.9167 15
      vertex 34.8572 18.7282 15
    endloop
  endfacet
  facet normal 0 -0 1
    outer loop
      vertex 30.9017 20.1057 15
      vertex 1.98953 19.9792 15
      vertex 32.8867 19.4376 15
    endloop
  endfacet
  facet normal 0 -0 1
    outer loop
      vertex 28.9032 20.7319 15
      vertex 0 20 15
      vertex 30.9017 20.1057 15
    endloop
  endfacet
  facet normal 0 -0 1
    outer loop
      vertex 26.892 21.3163 15
      vertex -1.98953 19.9792 15
      vertex 28.9032 20.7319 15
    endloop
  endfacet
  facet normal 0 -0 1
    outer loop
      vertex 24.869 21.8583 15
      vertex -3.97819 19.9167 15
      vertex 26.892 21.3163 15
    endloop
  endfacet
  facet normal 0 -0 1
    outer loop
      vertex 22.8351 22.3579 15
      vertex -5.9651 19.8125 15
      vertex 24.869 21.8583 15
    endloop
  endfacet
  facet normal 0 -0 1
    outer loop
      vertex 20.7912 22.8148 15
      vertex -7.94939 19.6668 15
      vertex 22.8351 22.3579 15
    endloop
  endfacet
  facet normal 0 -0 1
    outer loop
      vertex 18.7381 23.2287 15
      vertex -9.9302 19.4796 15
      vertex 20.7912 22.8148 15
    endloop
  endfacet
  facet normal 0 -0 1
    outer loop
      vertex 16.6769 23.5996 15
      vertex -11.9067 19.2509 15
      vertex 18.7381 23.2287 15
    endloop
  endfacet
  facet normal 0 -0 1
    outer loop
      vertex 14.6083 23.9272 15
      vertex -13.8779 18.9809 15
      vertex 16.6769 23.5996 15
    endloop
  endfacet
  facet normal 0 -0 1
    outer loop
      vertex 12.5333 24.2115 15
      vertex -15.843 18.6696 15
      vertex 14.6083 23.9272 15
    endloop
  endfacet
  facet normal 0 -0 1
    outer loop
      vertex 10.4528 24.4522 15
      vertex -17.8012 18.3173 15
      vertex 12.5333 24.2115 15
    endloop
  endfacet
  facet normal 0 -0 1
    outer loop
      vertex 8.36778 24.6493 15
      vertex -19.7516 17.924 15
      vertex 10.4528 24.4522 15
    endloop
  endfacet
  facet normal 0 -0 1
    outer loop
      vertex 6.27905 24.8027 15
      vertex -21.6933 17.49 15
      vertex 8.36778 24.6493 15
    endloop
  endfacet
  facet normal 0 -0 1
    outer loop
      vertex 4.18757 24.9123 15
      vertex -23.6255 17.0154 15
      vertex 6.27905 24.8027 15
    endloop
  endfacet
  facet normal 0 -0 1
    outer loop
      vertex 2.09424 24.9781 15
      vertex -25.5474 16.5004 15
      vertex 4.18757 24.9123 15
    endloop
  endfacet
  facet normal 0 -0 1
    outer loop
      vertex 0 25 15
      vertex -27.458 15.9454 15
      vertex 2.09424 24.9781 15
    endloop
  endfacet
  facet normal 0 -0 1
    outer loop
      vertex -2.09424 24.9781 15
      vertex -29.3566 15.3504 15
      vertex 0 25 15
    endloop
  endfacet
  facet normal 0 -0 1
    outer loop
      vertex -4.18757 24.9123 15
      vertex -31.2423 14.7158 15
      vertex -2.09424 24.9781 15
    endloop
  endfacet
  facet normal 0 -0 1
    outer loop
      vertex -6.27905 24.8027 15
      vertex -33.1143 14.0418 15
      vertex -4.18757 24.9123 15
    endloop
  endfacet
  facet normal 0 -0 1
    outer loop
      vertex -8.36778 24.6493 15
      vertex -34.9718 13.3288 15
      vertex -6.27905 24.8027 15
    endloop
  endfacet
  facet normal 0 -0 1
    outer loop
      vertex -10.4528 24.4522 15
      vertex -65.3421 0.699506 15
      vertex -8.36778 24.6493 15
    endloop
  endfacet
  facet normal 0 -0 1
    outer loop
      vertex -12.5333 24.2115 15
      vertex -65.3421 0.699506 15
      vertex -10.4528 24.4522 15
    endloop
  endfacet
  facet normal 0 -0 1
    outer loop
      vertex -14.6083 23.9272 15
      vertex -65.3421 0.699506 15
      vertex -12.5333 24.2115 15
    endloop
  endfacet
  facet normal 0 -0 1
    outer loop
      vertex -16.6769 23.5996 15
      vertex -65.3421 0.699506 15
      vertex -14.6083 23.9272 15
    endloop
  endfacet
  facet normal 0 -0 1
    outer loop
      vertex -18.7381 23.2287 15
      vertex -65.3421 0.699506 15
      vertex -16.6769 23.5996 15
    endloop
  endfacet
  facet normal 0 -0 1
    outer loop
      vertex -20.7912 22.8148 15
      vertex -65.3421 0.699506 15
      vertex -18.7381 23.2287 15
    endloop
  endfacet
  facet normal 0 -0 1
    outer loop
      vertex -22.8351 22.3579 15
      vertex -65.3421 0.699506 15
      vertex -20.7912 22.8148 15
    endloop
  endfacet
  facet normal 0 -0 1
    outer loop
      vertex -24.869 21.8583 15
      vertex -65.3421 0.699506 15
      vertex -22.8351 22.3579 15
    endloop
  endfacet
  facet normal 0 -0 1
    outer loop
      vertex -26.892 21.3163 15
      vertex -65.3421 0.699506 15
      vertex -24.869 21.8583 15
    endloop
  endfacet
  facet normal 0 -0 1
    outer loop
      vertex -28.9032 20.7319 15
      vertex -65.3421 0.699506 15
      vertex -26.892 21.3163 15
    endloop
  endfacet
  facet normal 0 -0 1
    outer loop
      vertex -30.9017 20.1057 15
      vertex -65.3421 0.699506 15
      vertex -28.9032 20.7319 15
    endloop
  endfacet
  facet normal 0 -0 1
    outer loop
      vertex -32.8867 19.4376 15
      vertex -65.3421 0.699506 15
      vertex -30.9017 20.1057 15
    endloop
  endfacet
  facet normal 0 -0 1
    outer loop
      vertex -34.8572 18.7282 15
      vertex -65.3421 0.699506 15
      vertex -32.8867 19.4376 15
    endloop
  endfacet
  facet normal 0 -0 1
    outer loop
      vertex -36.8125 17.9776 15
      vertex -65.3421 0.699506 15
      vertex -34.8572 18.7282 15
    endloop
  endfacet
  facet normal 0 -0 1
    outer loop
      vertex -38.7516 17.1863 15
      vertex -65.3421 0.699506 15
      vertex -36.8125 17.9776 15
    endloop
  endfacet
  facet normal 0 -0 1
    outer loop
      vertex -40.6737 16.3545 15
      vertex -65.3421 0.699506 15
      vertex -38.7516 17.1863 15
    endloop
  endfacet
  facet normal 0 -0 1
    outer loop
      vertex -42.5779 15.4827 15
      vertex -65.3421 0.699506 15
      vertex -40.6737 16.3545 15
    endloop
  endfacet
  facet normal 0 -0 1
    outer loop
      vertex -44.4635 14.5712 15
      vertex -65.3421 0.699506 15
      vertex -42.5779 15.4827 15
    endloop
  endfacet
  facet normal 0 -0 1
    outer loop
      vertex -46.3296 13.6204 15
      vertex -65.3421 0.699506 15
      vertex -44.4635 14.5712 15
    endloop
  endfacet
  facet normal 0 -0 1
    outer loop
      vertex -48.1754 12.6307 15
      vertex -65.3421 0.699506 15
      vertex -46.3296 13.6204 15
    endloop
  endfacet
  facet normal 0 -0 1
    outer loop
      vertex -50 11.6025 15
      vertex -65.3421 0.699506 15
      vertex -48.1754 12.6307 15
    endloop
  endfacet
  facet normal 0 -0 1
    outer loop
      vertex -51.8027 10.5364 15
      vertex -65.3421 0.699506 15
      vertex -50 11.6025 15
    endloop
  endfacet
  facet normal 0 -0 1
    outer loop
      vertex -53.5827 9.43279 15
      vertex -65.3421 0.699506 15
      vertex -51.8027 10.5364 15
    endloop
  endfacet
  facet normal 0 -0 1
    outer loop
      vertex -55.3392 8.29212 15
      vertex -65.3421 0.699506 15
      vertex -53.5827 9.43279 15
    endloop
  endfacet
  facet normal 0 -0 1
    outer loop
      vertex -57.0714 7.11492 15
      vertex -65.3421 0.699506 15
      vertex -55.3392 8.29212 15
    endloop
  endfacet
  facet normal 0 -0 1
    outer loop
      vertex -58.7785 5.9017 15
      vertex -65.3421 0.699506 15
      vertex -57.0714 7.11492 15
    endloop
  endfacet
  facet normal 0 -0 1
    outer loop
      vertex -60.4599 4.65299 15
      vertex -65.3421 0.699506 15
      vertex -58.7785 5.9017 15
    endloop
  endfacet
  facet normal 0 -0 1
    outer loop
      vertex -62.1148 3.36935 15
      vertex -65.3421 0.699506 15
      vertex -60.4599 4.65299 15
    endloop
  endfacet
  facet normal 0 -0 1
    outer loop
      vertex -63.7424 2.05132 15
      vertex -65.3421 0.699506 15
      vertex -62.1148 3.36935 15
    endloop
  endfacet
  facet normal 1 0 0
    outer loop
      vertex -40 11.1642 0
      vertex -40 11.1642 15
      vertex -40 0 15
    endloop
  endfacet
  facet normal 1 0 0
    outer loop
      vertex -40 0 0
      vertex -40 11.1642 0
      vertex -40 0 15
    endloop
  endfacet
  facet normal 1 0 0
    outer loop
      vertex -49 9.5 6
      vertex -49 9.5 9
      vertex -49 0 9
    endloop
  endfacet
  facet normal 1 0 0
    outer loop
      vertex -49 0 6
      vertex -49 9.5 6
      vertex -49 0 9
    endloop
  endfacet
  facet normal 0 0 1
    outer loop
      vertex -46 0 6
      vertex -46 9.5 6
      vertex -49 9.5 6
    endloop
  endfacet
  facet normal 0 0 1
    outer loop
      vertex -49 0 6
      vertex -46 0 6
      vertex -49 9.5 6
    endloop
  endfacet
  facet normal -1 0 0
    outer loop
      vertex -46 9.5 9
      vertex -46 9.5 6
      vertex -46 0 9
    endloop
  endfacet
  facet normal -1 0 0
    outer loop
      vertex -46 0 9
      vertex -46 9.5 6
      vertex -46 0 6
    endloop
  endfacet
  facet normal 0 0 -1
    outer loop
      vertex -46 9.5 9
      vertex -46 0 9
      vertex -49 9.5 9
    endloop
  endfacet
  facet normal 0 0 -1
    outer loop
      vertex -49 9.5 9
      vertex -46 0 9
      vertex -49 0 9
    endloop
  endfacet
  facet normal 0.416281 -0.909236 0
    outer loop
      vertex -38.64 11.7868 0
      vertex -38.64 11.7868 15
      vertex -40 11.1642 15
    endloop
  endfacet
  facet normal 0.416281 -0.909236 0
    outer loop
      vertex -40 11.1642 0
      vertex -38.64 11.7868 0
      vertex -40 11.1642 15
    endloop
  endfacet
  facet normal 0.397148 -0.917755 0
    outer loop
      vertex -36.814 12.577 0
      vertex -36.814 12.577 15
      vertex -38.64 11.7868 15
    endloop
  endfacet
  facet normal 0.397148 -0.917755 0
    outer loop
      vertex -38.64 11.7868 0
      vertex -36.814 12.577 0
      vertex -38.64 11.7868 15
    endloop
  endfacet
  facet normal 0.377841 -0.925871 0
    outer loop
      vertex -34.9718 13.3288 0
      vertex -34.9718 13.3288 15
      vertex -36.814 12.577 15
    endloop
  endfacet
  facet normal 0.377841 -0.925871 0
    outer loop
      vertex -36.814 12.577 0
      vertex -34.9718 13.3288 0
      vertex -36.814 12.577 15
    endloop
  endfacet
  facet normal 0.358368 -0.93358 0
    outer loop
      vertex -33.1143 14.0418 0
      vertex -33.1143 14.0418 15
      vertex -34.9718 13.3288 15
    endloop
  endfacet
  facet normal 0.358368 -0.93358 0
    outer loop
      vertex -34.9718 13.3288 0
      vertex -33.1143 14.0418 0
      vertex -34.9718 13.3288 15
    endloop
  endfacet
  facet normal 0.338738 -0.940881 0
    outer loop
      vertex -31.2423 14.7158 0
      vertex -31.2423 14.7158 15
      vertex -33.1143 14.0418 15
    endloop
  endfacet
  facet normal 0.338738 -0.940881 0
    outer loop
      vertex -33.1143 14.0418 0
      vertex -31.2423 14.7158 0
      vertex -33.1143 14.0418 15
    endloop
  endfacet
  facet normal 0.318959 -0.947768 0
    outer loop
      vertex -29.3566 15.3504 0
      vertex -29.3566 15.3504 15
      vertex -31.2423 14.7158 15
    endloop
  endfacet
  facet normal 0.318959 -0.947768 0
    outer loop
      vertex -31.2423 14.7158 0
      vertex -29.3566 15.3504 0
      vertex -31.2423 14.7158 15
    endloop
  endfacet
  facet normal 0.299041 -0.95424 0
    outer loop
      vertex -27.458 15.9454 0
      vertex -27.458 15.9454 15
      vertex -29.3566 15.3504 15
    endloop
  endfacet
  facet normal 0.299041 -0.95424 0
    outer loop
      vertex -29.3566 15.3504 0
      vertex -27.458 15.9454 0
      vertex -29.3566 15.3504 15
    endloop
  endfacet
  facet normal 0.278991 -0.960294 0
    outer loop
      vertex -25.5474 16.5004 0
      vertex -25.5474 16.5004 15
      vertex -27.458 15.9454 15
    endloop
  endfacet
  facet normal 0.278991 -0.960294 0
    outer loop
      vertex -27.458 15.9454 0
      vertex -25.5474 16.5004 0
      vertex -27.458 15.9454 15
    endloop
  endfacet
  facet normal 0.258819 -0.965926 0
    outer loop
      vertex -23.6255 17.0154 0
      vertex -23.6255 17.0154 15
      vertex -25.5474 16.5004 15
    endloop
  endfacet
  facet normal 0.258819 -0.965926 0
    outer loop
      vertex -25.5474 16.5004 0
      vertex -23.6255 17.0154 0
      vertex -25.5474 16.5004 15
    endloop
  endfacet
  facet normal 0.238534 -0.971134 0
    outer loop
      vertex -21.6933 17.49 0
      vertex -21.6933 17.49 15
      vertex -23.6255 17.0154 15
    endloop
  endfacet
  facet normal 0.238534 -0.971134 0
    outer loop
      vertex -23.6255 17.0154 0
      vertex -21.6933 17.49 0
      vertex -23.6255 17.0154 15
    endloop
  endfacet
  facet normal 0.218143 -0.975917 0
    outer loop
      vertex -19.7516 17.924 0
      vertex -19.7516 17.924 15
      vertex -21.6933 17.49 15
    endloop
  endfacet
  facet normal 0.218143 -0.975917 0
    outer loop
      vertex -21.6933 17.49 0
      vertex -19.7516 17.924 0
      vertex -21.6933 17.49 15
    endloop
  endfacet
  facet normal 0.197657 -0.980271 0
    outer loop
      vertex -17.8012 18.3173 0
      vertex -17.8012 18.3173 15
      vertex -19.7516 17.924 15
    endloop
  endfacet
  facet normal 0.197657 -0.980271 0
    outer loop
      vertex -19.7516 17.924 0
      vertex -17.8012 18.3173 0
      vertex -19.7516 17.924 15
    endloop
  endfacet
  facet normal 0.177085 -0.984196 0
    outer loop
      vertex -15.843 18.6696 0
      vertex -15.843 18.6696 15
      vertex -17.8012 18.3173 15
    endloop
  endfacet
  facet normal 0.177085 -0.984196 0
    outer loop
      vertex -17.8012 18.3173 0
      vertex -15.843 18.6696 0
      vertex -17.8012 18.3173 15
    endloop
  endfacet
  facet normal 0.156434 -0.987688 0
    outer loop
      vertex -13.8779 18.9809 0
      vertex -13.8779 18.9809 15
      vertex -15.843 18.6696 15
    endloop
  endfacet
  facet normal 0.156434 -0.987688 0
    outer loop
      vertex -15.843 18.6696 0
      vertex -13.8779 18.9809 0
      vertex -15.843 18.6696 15
    endloop
  endfacet
  facet normal 0.135716 -0.990748 0
    outer loop
      vertex -11.9067 19.2509 0
      vertex -11.9067 19.2509 15
      vertex -13.8779 18.9809 15
    endloop
  endfacet
  facet normal 0.135716 -0.990748 0
    outer loop
      vertex -13.8779 18.9809 0
      vertex -11.9067 19.2509 0
      vertex -13.8779 18.9809 15
    endloop
  endfacet
  facet normal 0.114937 -0.993373 0
    outer loop
      vertex -9.9302 19.4796 0
      vertex -9.9302 19.4796 15
      vertex -11.9067 19.2509 15
    endloop
  endfacet
  facet normal 0.114937 -0.993373 0
    outer loop
      vertex -11.9067 19.2509 0
      vertex -9.9302 19.4796 0
      vertex -11.9067 19.2509 15
    endloop
  endfacet
  facet normal 0.0941085 -0.995562 0
    outer loop
      vertex -7.94939 19.6668 0
      vertex -7.94939 19.6668 15
      vertex -9.9302 19.4796 15
    endloop
  endfacet
  facet normal 0.0941085 -0.995562 0
    outer loop
      vertex -9.9302 19.4796 0
      vertex -7.94939 19.6668 0
      vertex -9.9302 19.4796 15
    endloop
  endfacet
  facet normal 0.0732379 -0.997314 0
    outer loop
      vertex -5.9651 19.8125 0
      vertex -5.9651 19.8125 15
      vertex -7.94939 19.6668 15
    endloop
  endfacet
  facet normal 0.0732379 -0.997314 0
    outer loop
      vertex -7.94939 19.6668 0
      vertex -5.9651 19.8125 0
      vertex -7.94939 19.6668 15
    endloop
  endfacet
  facet normal 0.0523361 -0.99863 0
    outer loop
      vertex -3.97819 19.9167 0
      vertex -3.97819 19.9167 15
      vertex -5.9651 19.8125 15
    endloop
  endfacet
  facet normal 0.0523361 -0.99863 0
    outer loop
      vertex -5.9651 19.8125 0
      vertex -3.97819 19.9167 0
      vertex -5.9651 19.8125 15
    endloop
  endfacet
  facet normal 0.0314107 -0.999507 0
    outer loop
      vertex -1.98953 19.9792 0
      vertex -1.98953 19.9792 15
      vertex -3.97819 19.9167 15
    endloop
  endfacet
  facet normal 0.0314107 -0.999507 0
    outer loop
      vertex -3.97819 19.9167 0
      vertex -1.98953 19.9792 0
      vertex -3.97819 19.9167 15
    endloop
  endfacet
  facet normal 0.0104717 -0.999945 0
    outer loop
      vertex 0 20 0
      vertex 0 20 15
      vertex -1.98953 19.9792 15
    endloop
  endfacet
  facet normal 0.0104717 -0.999945 0
    outer loop
      vertex -1.98953 19.9792 0
      vertex 0 20 0
      vertex -1.98953 19.9792 15
    endloop
  endfacet
  facet normal -0.0104717 -0.999945 -0
    outer loop
      vertex 1.98953 19.9792 0
      vertex 1.98953 19.9792 15
      vertex 0 20 15
    endloop
  endfacet
  facet normal -0.0104717 -0.999945 -0
    outer loop
      vertex 0 20 0
      vertex 1.98953 19.9792 0
      vertex 0 20 15
    endloop
  endfacet
  facet normal -0.0314107 -0.999507 -0
    outer loop
      vertex 3.97819 19.9167 0
      vertex 3.97819 19.9167 15
      vertex 1.98953 19.9792 15
    endloop
  endfacet
  facet normal -0.0314107 -0.999507 -0
    outer loop
      vertex 1.98953 19.9792 0
      vertex 3.97819 19.9167 0
      vertex 1.98953 19.9792 15
    endloop
  endfacet
  facet normal -0.0523361 -0.99863 -0
    outer loop
      vertex 5.9651 19.8125 0
      vertex 5.9651 19.8125 15
      vertex 3.97819 19.9167 15
    endloop
  endfacet
  facet normal -0.0523361 -0.99863 -0
    outer loop
      vertex 3.97819 19.9167 0
      vertex 5.9651 19.8125 0
      vertex 3.97819 19.9167 15
    endloop
  endfacet
  facet normal -0.0732379 -0.997314 -0
    outer loop
      vertex 7.94939 19.6668 0
      vertex 7.94939 19.6668 15
      vertex 5.9651 19.8125 15
    endloop
  endfacet
  facet normal -0.0732379 -0.997314 -0
    outer loop
      vertex 5.9651 19.8125 0
      vertex 7.94939 19.6668 0
      vertex 5.9651 19.8125 15
    endloop
  endfacet
  facet normal -0.0941085 -0.995562 -0
    outer loop
      vertex 9.9302 19.4796 0
      vertex 9.9302 19.4796 15
      vertex 7.94939 19.6668 15
    endloop
  endfacet
  facet normal -0.0941085 -0.995562 -0
    outer loop
      vertex 7.94939 19.6668 0
      vertex 9.9302 19.4796 0
      vertex 7.94939 19.6668 15
    endloop
  endfacet
  facet normal -0.114937 -0.993373 -0
    outer loop
      vertex 11.9067 19.2509 0
      vertex 11.9067 19.2509 15
      vertex 9.9302 19.4796 15
    endloop
  endfacet
  facet normal -0.114937 -0.993373 -0
    outer loop
      vertex 9.9302 19.4796 0
      vertex 11.9067 19.2509 0
      vertex 9.9302 19.4796 15
    endloop
  endfacet
  facet normal -0.135716 -0.990748 -0
    outer loop
      vertex 13.8779 18.9809 0
      vertex 13.8779 18.9809 15
      vertex 11.9067 19.2509 15
    endloop
  endfacet
  facet normal -0.135716 -0.990748 -0
    outer loop
      vertex 11.9067 19.2509 0
      vertex 13.8779 18.9809 0
      vertex 11.9067 19.2509 15
    endloop
  endfacet
  facet normal -0.156434 -0.987688 -0
    outer loop
      vertex 15.843 18.6696 0
      vertex 15.843 18.6696 15
      vertex 13.8779 18.9809 15
    endloop
  endfacet
  facet normal -0.156434 -0.987688 -0
    outer loop
      vertex 13.8779 18.9809 0
      vertex 15.843 18.6696 0
      vertex 13.8779 18.9809 15
    endloop
  endfacet
  facet normal -0.177085 -0.984196 -0
    outer loop
      vertex 17.8012 18.3173 0
      vertex 17.8012 18.3173 15
      vertex 15.843 18.6696 15
    endloop
  endfacet
  facet normal -0.177085 -0.984196 -0
    outer loop
      vertex 15.843 18.6696 0
      vertex 17.8012 18.3173 0
      vertex 15.843 18.6696 15
    endloop
  endfacet
  facet normal -0.197657 -0.980271 -0
    outer loop
      vertex 19.7516 17.924 0
      vertex 19.7516 17.924 15
      vertex 17.8012 18.3173 15
    endloop
  endfacet
  facet normal -0.197657 -0.980271 -0
    outer loop
      vertex 17.8012 18.3173 0
      vertex 19.7516 17.924 0
      vertex 17.8012 18.3173 15
    endloop
  endfacet
  facet normal -0.218143 -0.975917 -0
    outer loop
      vertex 21.6933 17.49 0
      vertex 21.6933 17.49 15
      vertex 19.7516 17.924 15
    endloop
  endfacet
  facet normal -0.218143 -0.975917 -0
    outer loop
      vertex 19.7516 17.924 0
      vertex 21.6933 17.49 0
      vertex 19.7516 17.924 15
    endloop
  endfacet
  facet normal -0.238534 -0.971134 -0
    outer loop
      vertex 23.6255 17.0154 0
      vertex 23.6255 17.0154 15
      vertex 21.6933 17.49 15
    endloop
  endfacet
  facet normal -0.238534 -0.971134 -0
    outer loop
      vertex 21.6933 17.49 0
      vertex 23.6255 17.0154 0
      vertex 21.6933 17.49 15
    endloop
  endfacet
  facet normal -0.258819 -0.965926 -0
    outer loop
      vertex 25.5474 16.5004 0
      vertex 25.5474 16.5004 15
      vertex 23.6255 17.0154 15
    endloop
  endfacet
  facet normal -0.258819 -0.965926 -0
    outer loop
      vertex 23.6255 17.0154 0
      vertex 25.5474 16.5004 0
      vertex 23.6255 17.0154 15
    endloop
  endfacet
  facet normal -0.278991 -0.960294 -0
    outer loop
      vertex 27.458 15.9454 0
      vertex 27.458 15.9454 15
      vertex 25.5474 16.5004 15
    endloop
  endfacet
  facet normal -0.278991 -0.960294 -0
    outer loop
      vertex 25.5474 16.5004 0
      vertex 27.458 15.9454 0
      vertex 25.5474 16.5004 15
    endloop
  endfacet
  facet normal -0.299041 -0.95424 -0
    outer loop
      vertex 29.3566 15.3504 0
      vertex 29.3566 15.3504 15
      vertex 27.458 15.9454 15
    endloop
  endfacet
  facet normal -0.299041 -0.95424 -0
    outer loop
      vertex 27.458 15.9454 0
      vertex 29.3566 15.3504 0
      vertex 27.458 15.9454 15
    endloop
  endfacet
  facet normal -0.318959 -0.947768 -0
    outer loop
      vertex 31.2423 14.7158 0
      vertex 31.2423 14.7158 15
      vertex 29.3566 15.3504 15
    endloop
  endfacet
  facet normal -0.318959 -0.947768 -0
    outer loop
      vertex 29.3566 15.3504 0
      vertex 31.2423 14.7158 0
      vertex 29.3566 15.3504 15
    endloop
  endfacet
  facet normal -0.338738 -0.940881 -0
    outer loop
      vertex 33.1143 14.0418 0
      vertex 33.1143 14.0418 15
      vertex 31.2423 14.7158 15
    endloop
  endfacet
  facet normal -0.338738 -0.940881 -0
    outer loop
      vertex 31.2423 14.7158 0
      vertex 33.1143 14.0418 0
      vertex 31.2423 14.7158 15
    endloop
  endfacet
  facet normal -0.358368 -0.93358 -0
    outer loop
      vertex 34.9718 13.3288 0
      vertex 34.9718 13.3288 15
      vertex 33.1143 14.0418 15
    endloop
  endfacet
  facet normal -0.358368 -0.93358 -0
    outer loop
      vertex 33.1143 14.0418 0
      vertex 34.9718 13.3288 0
      vertex 33.1143 14.0418 15
    endloop
  endfacet
  facet normal -0.377841 -0.925871 -0
    outer loop
      vertex 36.814 12.577 0
      vertex 36.814 12.577 15
      vertex 34.9718 13.3288 15
    endloop
  endfacet
  facet normal -0.377841 -0.925871 -0
    outer loop
      vertex 34.9718 13.3288 0
      vertex 36.814 12.577 0
      vertex 34.9718 13.3288 15
    endloop
  endfacet
  facet normal -0.397148 -0.917755 -0
    outer loop
      vertex 38.64 11.7868 0
      vertex 38.64 11.7868 15
      vertex 36.814 12.577 15
    endloop
  endfacet
  facet normal -0.397148 -0.917755 -0
    outer loop
      vertex 36.814 12.577 0
      vertex 38.64 11.7868 0
      vertex 36.814 12.577 15
    endloop
  endfacet
  facet normal -0.416281 -0.909236 -0
    outer loop
      vertex 40 11.1642 0
      vertex 40 11.1642 15
      vertex 38.64 11.7868 15
    endloop
  endfacet
  facet normal -0.416281 -0.909236 -0
    outer loop
      vertex 38.64 11.7868 0
      vertex 40 11.1642 0
      vertex 38.64 11.7868 15
    endloop
  endfacet
  facet normal -1 0 0
    outer loop
      vertex 40 11.1642 15
      vertex 40 11.1642 0
      vertex 40 0 15
    endloop
  endfacet
  facet normal -1 0 0
    outer loop
      vertex 40 0 15
      vertex 40 11.1642 0
      vertex 40 0 0
    endloop
  endfacet
  facet normal 0 -1 0
    outer loop
      vertex 46 0 6
      vertex 40 0 0
      vertex 66.1355 0 0
    endloop
  endfacet
  facet normal 0 -1 0
    outer loop
      vertex 66.1355 0 15
      vertex 40 0 15
      vertex 66.1355 0 0
    endloop
  endfacet
  facet normal 0 -1 0
    outer loop
      vertex 49 0 6
      vertex 46 0 6
      vertex 66.1355 0 0
    endloop
  endfacet
  facet normal 0 -1 0
    outer loop
      vertex 40 0 15
      vertex 40 0 0
      vertex 46 0 6
    endloop
  endfacet
  facet normal 0 -1 0
    outer loop
      vertex 40 0 15
      vertex 46 0 6
      vertex 46 0 9
    endloop
  endfacet
  facet normal 0 -1 0
    outer loop
      vertex 40 0 15
      vertex 49 0 9
      vertex 66.1355 0 0
    endloop
  endfacet
  facet normal 0 -1 0
    outer loop
      vertex 40 0 15
      vertex 46 0 9
      vertex 49 0 9
    endloop
  endfacet
  facet normal 0 -1 0
    outer loop
      vertex 49 0 9
      vertex 49 0 6
      vertex 66.1355 0 0
    endloop
  endfacet
  facet normal 0.661312 0.750111 0
    outer loop
      vertex 65.3421 0.699506 0
      vertex 65.3421 0.699506 15
      vertex 66.1355 0 0
    endloop
  endfacet
  facet normal 0.661312 0.750111 0
    outer loop
      vertex 66.1355 0 0
      vertex 65.3421 0.699506 15
      vertex 66.1355 0 15
    endloop
  endfacet
  facet normal 0.645458 0.763796 0
    outer loop
      vertex 63.7424 2.05132 0
      vertex 63.7424 2.05132 15
      vertex 65.3421 0.699506 0
    endloop
  endfacet
  facet normal 0.645458 0.763796 0
    outer loop
      vertex 65.3421 0.699506 0
      vertex 63.7424 2.05132 15
      vertex 65.3421 0.699506 15
    endloop
  endfacet
  facet normal 0.629321 0.777146 0
    outer loop
      vertex 62.1148 3.36935 0
      vertex 62.1148 3.36935 15
      vertex 63.7424 2.05132 0
    endloop
  endfacet
  facet normal 0.629321 0.777146 0
    outer loop
      vertex 63.7424 2.05132 0
      vertex 62.1148 3.36935 15
      vertex 63.7424 2.05132 15
    endloop
  endfacet
  facet normal 0.612907 0.790155 0
    outer loop
      vertex 60.4599 4.65299 0
      vertex 60.4599 4.65299 15
      vertex 62.1148 3.36935 0
    endloop
  endfacet
  facet normal 0.612907 0.790155 0
    outer loop
      vertex 62.1148 3.36935 0
      vertex 60.4599 4.65299 15
      vertex 62.1148 3.36935 15
    endloop
  endfacet
  facet normal 0.596225 0.802818 0
    outer loop
      vertex 58.7785 5.9017 0
      vertex 58.7785 5.9017 15
      vertex 60.4599 4.65299 0
    endloop
  endfacet
  facet normal 0.596225 0.802818 0
    outer loop
      vertex 60.4599 4.65299 0
      vertex 58.7785 5.9017 15
      vertex 60.4599 4.65299 15
    endloop
  endfacet
  facet normal 0.579281 0.815128 0
    outer loop
      vertex 57.0714 7.11492 0
      vertex 57.0714 7.11492 15
      vertex 58.7785 5.9017 0
    endloop
  endfacet
  facet normal 0.579281 0.815128 0
    outer loop
      vertex 58.7785 5.9017 0
      vertex 57.0714 7.11492 15
      vertex 58.7785 5.9017 15
    endloop
  endfacet
  facet normal 0.562083 0.827081 0
    outer loop
      vertex 55.3392 8.29212 0
      vertex 55.3392 8.29212 15
      vertex 57.0714 7.11492 0
    endloop
  endfacet
  facet normal 0.562083 0.827081 0
    outer loop
      vertex 57.0714 7.11492 0
      vertex 55.3392 8.29212 15
      vertex 57.0714 7.11492 15
    endloop
  endfacet
  facet normal 0.544639 0.838671 0
    outer loop
      vertex 53.5827 9.43279 0
      vertex 53.5827 9.43279 15
      vertex 55.3392 8.29212 0
    endloop
  endfacet
  facet normal 0.544639 0.838671 0
    outer loop
      vertex 55.3392 8.29212 0
      vertex 53.5827 9.43279 15
      vertex 55.3392 8.29212 15
    endloop
  endfacet
  facet normal 0.526956 0.849893 0
    outer loop
      vertex 51.8027 10.5364 0
      vertex 51.8027 10.5364 15
      vertex 53.5827 9.43279 0
    endloop
  endfacet
  facet normal 0.526956 0.849893 0
    outer loop
      vertex 53.5827 9.43279 0
      vertex 51.8027 10.5364 15
      vertex 53.5827 9.43279 15
    endloop
  endfacet
  facet normal 0.509041 0.860742 0
    outer loop
      vertex 50 11.6025 0
      vertex 50 11.6025 15
      vertex 51.8027 10.5364 0
    endloop
  endfacet
  facet normal 0.509041 0.860742 0
    outer loop
      vertex 51.8027 10.5364 0
      vertex 50 11.6025 15
      vertex 51.8027 10.5364 15
    endloop
  endfacet
  facet normal 0.490904 0.871214 0
    outer loop
      vertex 48.1754 12.6307 0
      vertex 48.1754 12.6307 15
      vertex 50 11.6025 0
    endloop
  endfacet
  facet normal 0.490904 0.871214 0
    outer loop
      vertex 50 11.6025 0
      vertex 48.1754 12.6307 15
      vertex 50 11.6025 15
    endloop
  endfacet
  facet normal 0.472551 0.881303 0
    outer loop
      vertex 46.3296 13.6204 0
      vertex 46.3296 13.6204 15
      vertex 48.1754 12.6307 0
    endloop
  endfacet
  facet normal 0.472551 0.881303 0
    outer loop
      vertex 48.1754 12.6307 0
      vertex 46.3296 13.6204 15
      vertex 48.1754 12.6307 15
    endloop
  endfacet
  facet normal 0.45399 0.891007 0
    outer loop
      vertex 44.4635 14.5712 0
      vertex 44.4635 14.5712 15
      vertex 46.3296 13.6204 0
    endloop
  endfacet
  facet normal 0.45399 0.891007 0
    outer loop
      vertex 46.3296 13.6204 0
      vertex 44.4635 14.5712 15
      vertex 46.3296 13.6204 15
    endloop
  endfacet
  facet normal 0.435231 0.900319 0
    outer loop
      vertex 42.5779 15.4827 0
      vertex 42.5779 15.4827 15
      vertex 44.4635 14.5712 0
    endloop
  endfacet
  facet normal 0.435231 0.900319 0
    outer loop
      vertex 44.4635 14.5712 0
      vertex 42.5779 15.4827 15
      vertex 44.4635 14.5712 15
    endloop
  endfacet
  facet normal 0.416281 0.909236 0
    outer loop
      vertex 40.6737 16.3545 0
      vertex 40.6737 16.3545 15
      vertex 42.5779 15.4827 0
    endloop
  endfacet
  facet normal 0.416281 0.909236 0
    outer loop
      vertex 42.5779 15.4827 0
      vertex 40.6737 16.3545 15
      vertex 42.5779 15.4827 15
    endloop
  endfacet
  facet normal 0.397148 0.917755 0
    outer loop
      vertex 38.7516 17.1863 0
      vertex 38.7516 17.1863 15
      vertex 40.6737 16.3545 0
    endloop
  endfacet
  facet normal 0.397148 0.917755 0
    outer loop
      vertex 40.6737 16.3545 0
      vertex 38.7516 17.1863 15
      vertex 40.6737 16.3545 15
    endloop
  endfacet
  facet normal 0.377841 0.925871 0
    outer loop
      vertex 36.8125 17.9776 0
      vertex 36.8125 17.9776 15
      vertex 38.7516 17.1863 0
    endloop
  endfacet
  facet normal 0.377841 0.925871 0
    outer loop
      vertex 38.7516 17.1863 0
      vertex 36.8125 17.9776 15
      vertex 38.7516 17.1863 15
    endloop
  endfacet
  facet normal 0.358368 0.93358 0
    outer loop
      vertex 34.8572 18.7282 0
      vertex 34.8572 18.7282 15
      vertex 36.8125 17.9776 0
    endloop
  endfacet
  facet normal 0.358368 0.93358 0
    outer loop
      vertex 36.8125 17.9776 0
      vertex 34.8572 18.7282 15
      vertex 36.8125 17.9776 15
    endloop
  endfacet
  facet normal 0.338738 0.940881 0
    outer loop
      vertex 32.8867 19.4376 0
      vertex 32.8867 19.4376 15
      vertex 34.8572 18.7282 0
    endloop
  endfacet
  facet normal 0.338738 0.940881 0
    outer loop
      vertex 34.8572 18.7282 0
      vertex 32.8867 19.4376 15
      vertex 34.8572 18.7282 15
    endloop
  endfacet
  facet normal 0.318959 0.947768 0
    outer loop
      vertex 30.9017 20.1057 0
      vertex 30.9017 20.1057 15
      vertex 32.8867 19.4376 0
    endloop
  endfacet
  facet normal 0.318959 0.947768 0
    outer loop
      vertex 32.8867 19.4376 0
      vertex 30.9017 20.1057 15
      vertex 32.8867 19.4376 15
    endloop
  endfacet
  facet normal 0.299041 0.95424 0
    outer loop
      vertex 28.9032 20.7319 0
      vertex 28.9032 20.7319 15
      vertex 30.9017 20.1057 0
    endloop
  endfacet
  facet normal 0.299041 0.95424 0
    outer loop
      vertex 30.9017 20.1057 0
      vertex 28.9032 20.7319 15
      vertex 30.9017 20.1057 15
    endloop
  endfacet
  facet normal 0.278991 0.960294 0
    outer loop
      vertex 26.892 21.3163 0
      vertex 26.892 21.3163 15
      vertex 28.9032 20.7319 0
    endloop
  endfacet
  facet normal 0.278991 0.960294 0
    outer loop
      vertex 28.9032 20.7319 0
      vertex 26.892 21.3163 15
      vertex 28.9032 20.7319 15
    endloop
  endfacet
  facet normal 0.258819 0.965926 0
    outer loop
      vertex 24.869 21.8583 0
      vertex 24.869 21.8583 15
      vertex 26.892 21.3163 0
    endloop
  endfacet
  facet normal 0.258819 0.965926 0
    outer loop
      vertex 26.892 21.3163 0
      vertex 24.869 21.8583 15
      vertex 26.892 21.3163 15
    endloop
  endfacet
  facet normal 0.238533 0.971134 0
    outer loop
      vertex 22.8351 22.3579 0
      vertex 22.8351 22.3579 15
      vertex 24.869 21.8583 0
    endloop
  endfacet
  facet normal 0.238533 0.971134 0
    outer loop
      vertex 24.869 21.8583 0
      vertex 22.8351 22.3579 15
      vertex 24.869 21.8583 15
    endloop
  endfacet
  facet normal 0.218143 0.975917 0
    outer loop
      vertex 20.7912 22.8148 0
      vertex 20.7912 22.8148 15
      vertex 22.8351 22.3579 0
    endloop
  endfacet
  facet normal 0.218143 0.975917 0
    outer loop
      vertex 22.8351 22.3579 0
      vertex 20.7912 22.8148 15
      vertex 22.8351 22.3579 15
    endloop
  endfacet
  facet normal 0.197657 0.980271 0
    outer loop
      vertex 18.7381 23.2287 0
      vertex 18.7381 23.2287 15
      vertex 20.7912 22.8148 0
    endloop
  endfacet
  facet normal 0.197657 0.980271 0
    outer loop
      vertex 20.7912 22.8148 0
      vertex 18.7381 23.2287 15
      vertex 20.7912 22.8148 15
    endloop
  endfacet
  facet normal 0.177085 0.984196 0
    outer loop
      vertex 16.6769 23.5996 0
      vertex 16.6769 23.5996 15
      vertex 18.7381 23.2287 0
    endloop
  endfacet
  facet normal 0.177085 0.984196 0
    outer loop
      vertex 18.7381 23.2287 0
      vertex 16.6769 23.5996 15
      vertex 18.7381 23.2287 15
    endloop
  endfacet
  facet normal 0.156434 0.987688 0
    outer loop
      vertex 14.6083 23.9272 0
      vertex 14.6083 23.9272 15
      vertex 16.6769 23.5996 0
    endloop
  endfacet
  facet normal 0.156434 0.987688 0
    outer loop
      vertex 16.6769 23.5996 0
      vertex 14.6083 23.9272 15
      vertex 16.6769 23.5996 15
    endloop
  endfacet
  facet normal 0.135716 0.990748 0
    outer loop
      vertex 12.5333 24.2115 0
      vertex 12.5333 24.2115 15
      vertex 14.6083 23.9272 0
    endloop
  endfacet
  facet normal 0.135716 0.990748 0
    outer loop
      vertex 14.6083 23.9272 0
      vertex 12.5333 24.2115 15
      vertex 14.6083 23.9272 15
    endloop
  endfacet
  facet normal 0.114937 0.993373 0
    outer loop
      vertex 10.4528 24.4522 0
      vertex 10.4528 24.4522 15
      vertex 12.5333 24.2115 0
    endloop
  endfacet
  facet normal 0.114937 0.993373 0
    outer loop
      vertex 12.5333 24.2115 0
      vertex 10.4528 24.4522 15
      vertex 12.5333 24.2115 15
    endloop
  endfacet
  facet normal 0.0941081 0.995562 0
    outer loop
      vertex 8.36778 24.6493 0
      vertex 8.36778 24.6493 15
      vertex 10.4528 24.4522 0
    endloop
  endfacet
  facet normal 0.0941081 0.995562 0
    outer loop
      vertex 10.4528 24.4522 0
      vertex 8.36778 24.6493 15
      vertex 10.4528 24.4522 15
    endloop
  endfacet
  facet normal 0.0732382 0.997314 0
    outer loop
      vertex 6.27905 24.8027 0
      vertex 6.27905 24.8027 15
      vertex 8.36778 24.6493 0
    endloop
  endfacet
  facet normal 0.0732382 0.997314 0
    outer loop
      vertex 8.36778 24.6493 0
      vertex 6.27905 24.8027 15
      vertex 8.36778 24.6493 15
    endloop
  endfacet
  facet normal 0.0523359 0.99863 0
    outer loop
      vertex 4.18757 24.9123 0
      vertex 4.18757 24.9123 15
      vertex 6.27905 24.8027 0
    endloop
  endfacet
  facet normal 0.0523359 0.99863 0
    outer loop
      vertex 6.27905 24.8027 0
      vertex 4.18757 24.9123 15
      vertex 6.27905 24.8027 15
    endloop
  endfacet
  facet normal 0.0314106 0.999507 0
    outer loop
      vertex 2.09424 24.9781 0
      vertex 2.09424 24.9781 15
      vertex 4.18757 24.9123 0
    endloop
  endfacet
  facet normal 0.0314106 0.999507 0
    outer loop
      vertex 4.18757 24.9123 0
      vertex 2.09424 24.9781 15
      vertex 4.18757 24.9123 15
    endloop
  endfacet
  facet normal 0.0104719 0.999945 0
    outer loop
      vertex 0 25 0
      vertex 0 25 15
      vertex 2.09424 24.9781 0
    endloop
  endfacet
  facet normal 0.0104719 0.999945 0
    outer loop
      vertex 2.09424 24.9781 0
      vertex 0 25 15
      vertex 2.09424 24.9781 15
    endloop
  endfacet
  facet normal -0.0104719 0.999945 0
    outer loop
      vertex -2.09424 24.9781 0
      vertex -2.09424 24.9781 15
      vertex 0 25 0
    endloop
  endfacet
  facet normal -0.0104719 0.999945 0
    outer loop
      vertex 0 25 0
      vertex -2.09424 24.9781 15
      vertex 0 25 15
    endloop
  endfacet
  facet normal -0.0314106 0.999507 0
    outer loop
      vertex -4.18757 24.9123 0
      vertex -4.18757 24.9123 15
      vertex -2.09424 24.9781 0
    endloop
  endfacet
  facet normal -0.0314106 0.999507 0
    outer loop
      vertex -2.09424 24.9781 0
      vertex -4.18757 24.9123 15
      vertex -2.09424 24.9781 15
    endloop
  endfacet
  facet normal -0.0523359 0.99863 0
    outer loop
      vertex -6.27905 24.8027 0
      vertex -6.27905 24.8027 15
      vertex -4.18757 24.9123 0
    endloop
  endfacet
  facet normal -0.0523359 0.99863 0
    outer loop
      vertex -4.18757 24.9123 0
      vertex -6.27905 24.8027 15
      vertex -4.18757 24.9123 15
    endloop
  endfacet
  facet normal -0.0732382 0.997314 0
    outer loop
      vertex -8.36778 24.6493 0
      vertex -8.36778 24.6493 15
      vertex -6.27905 24.8027 0
    endloop
  endfacet
  facet normal -0.0732382 0.997314 0
    outer loop
      vertex -6.27905 24.8027 0
      vertex -8.36778 24.6493 15
      vertex -6.27905 24.8027 15
    endloop
  endfacet
  facet normal -0.0941081 0.995562 0
    outer loop
      vertex -10.4528 24.4522 0
      vertex -10.4528 24.4522 15
      vertex -8.36778 24.6493 0
    endloop
  endfacet
  facet normal -0.0941081 0.995562 0
    outer loop
      vertex -8.36778 24.6493 0
      vertex -10.4528 24.4522 15
      vertex -8.36778 24.6493 15
    endloop
  endfacet
  facet normal -0.114937 0.993373 0
    outer loop
      vertex -12.5333 24.2115 0
      vertex -12.5333 24.2115 15
      vertex -10.4528 24.4522 0
    endloop
  endfacet
  facet normal -0.114937 0.993373 0
    outer loop
      vertex -10.4528 24.4522 0
      vertex -12.5333 24.2115 15
      vertex -10.4528 24.4522 15
    endloop
  endfacet
  facet normal -0.135716 0.990748 0
    outer loop
      vertex -14.6083 23.9272 0
      vertex -14.6083 23.9272 15
      vertex -12.5333 24.2115 0
    endloop
  endfacet
  facet normal -0.135716 0.990748 0
    outer loop
      vertex -12.5333 24.2115 0
      vertex -14.6083 23.9272 15
      vertex -12.5333 24.2115 15
    endloop
  endfacet
  facet normal -0.156434 0.987688 0
    outer loop
      vertex -16.6769 23.5996 0
      vertex -16.6769 23.5996 15
      vertex -14.6083 23.9272 0
    endloop
  endfacet
  facet normal -0.156434 0.987688 0
    outer loop
      vertex -14.6083 23.9272 0
      vertex -16.6769 23.5996 15
      vertex -14.6083 23.9272 15
    endloop
  endfacet
  facet normal -0.177085 0.984196 0
    outer loop
      vertex -18.7381 23.2287 0
      vertex -18.7381 23.2287 15
      vertex -16.6769 23.5996 0
    endloop
  endfacet
  facet normal -0.177085 0.984196 0
    outer loop
      vertex -16.6769 23.5996 0
      vertex -18.7381 23.2287 15
      vertex -16.6769 23.5996 15
    endloop
  endfacet
  facet normal -0.197657 0.980271 0
    outer loop
      vertex -20.7912 22.8148 0
      vertex -20.7912 22.8148 15
      vertex -18.7381 23.2287 0
    endloop
  endfacet
  facet normal -0.197657 0.980271 0
    outer loop
      vertex -18.7381 23.2287 0
      vertex -20.7912 22.8148 15
      vertex -18.7381 23.2287 15
    endloop
  endfacet
  facet normal -0.218143 0.975917 0
    outer loop
      vertex -22.8351 22.3579 0
      vertex -22.8351 22.3579 15
      vertex -20.7912 22.8148 0
    endloop
  endfacet
  facet normal -0.218143 0.975917 0
    outer loop
      vertex -20.7912 22.8148 0
      vertex -22.8351 22.3579 15
      vertex -20.7912 22.8148 15
    endloop
  endfacet
  facet normal -0.238533 0.971134 0
    outer loop
      vertex -24.869 21.8583 0
      vertex -24.869 21.8583 15
      vertex -22.8351 22.3579 0
    endloop
  endfacet
  facet normal -0.238533 0.971134 0
    outer loop
      vertex -22.8351 22.3579 0
      vertex -24.869 21.8583 15
      vertex -22.8351 22.3579 15
    endloop
  endfacet
  facet normal -0.258819 0.965926 0
    outer loop
      vertex -26.892 21.3163 0
      vertex -26.892 21.3163 15
      vertex -24.869 21.8583 0
    endloop
  endfacet
  facet normal -0.258819 0.965926 0
    outer loop
      vertex -24.869 21.8583 0
      vertex -26.892 21.3163 15
      vertex -24.869 21.8583 15
    endloop
  endfacet
  facet normal -0.278991 0.960294 0
    outer loop
      vertex -28.9032 20.7319 0
      vertex -28.9032 20.7319 15
      vertex -26.892 21.3163 0
    endloop
  endfacet
  facet normal -0.278991 0.960294 0
    outer loop
      vertex -26.892 21.3163 0
      vertex -28.9032 20.7319 15
      vertex -26.892 21.3163 15
    endloop
  endfacet
  facet normal -0.299041 0.95424 0
    outer loop
      vertex -30.9017 20.1057 0
      vertex -30.9017 20.1057 15
      vertex -28.9032 20.7319 0
    endloop
  endfacet
  facet normal -0.299041 0.95424 0
    outer loop
      vertex -28.9032 20.7319 0
      vertex -30.9017 20.1057 15
      vertex -28.9032 20.7319 15
    endloop
  endfacet
  facet normal -0.318959 0.947768 0
    outer loop
      vertex -32.8867 19.4376 0
      vertex -32.8867 19.4376 15
      vertex -30.9017 20.1057 0
    endloop
  endfacet
  facet normal -0.318959 0.947768 0
    outer loop
      vertex -30.9017 20.1057 0
      vertex -32.8867 19.4376 15
      vertex -30.9017 20.1057 15
    endloop
  endfacet
  facet normal -0.338738 0.940881 0
    outer loop
      vertex -34.8572 18.7282 0
      vertex -34.8572 18.7282 15
      vertex -32.8867 19.4376 0
    endloop
  endfacet
  facet normal -0.338738 0.940881 0
    outer loop
      vertex -32.8867 19.4376 0
      vertex -34.8572 18.7282 15
      vertex -32.8867 19.4376 15
    endloop
  endfacet
  facet normal -0.358368 0.93358 0
    outer loop
      vertex -36.8125 17.9776 0
      vertex -36.8125 17.9776 15
      vertex -34.8572 18.7282 0
    endloop
  endfacet
  facet normal -0.358368 0.93358 0
    outer loop
      vertex -34.8572 18.7282 0
      vertex -36.8125 17.9776 15
      vertex -34.8572 18.7282 15
    endloop
  endfacet
  facet normal -0.377841 0.925871 0
    outer loop
      vertex -38.7516 17.1863 0
      vertex -38.7516 17.1863 15
      vertex -36.8125 17.9776 0
    endloop
  endfacet
  facet normal -0.377841 0.925871 0
    outer loop
      vertex -36.8125 17.9776 0
      vertex -38.7516 17.1863 15
      vertex -36.8125 17.9776 15
    endloop
  endfacet
  facet normal -0.397148 0.917755 0
    outer loop
      vertex -40.6737 16.3545 0
      vertex -40.6737 16.3545 15
      vertex -38.7516 17.1863 0
    endloop
  endfacet
  facet normal -0.397148 0.917755 0
    outer loop
      vertex -38.7516 17.1863 0
      vertex -40.6737 16.3545 15
      vertex -38.7516 17.1863 15
    endloop
  endfacet
  facet normal -0.416281 0.909236 0
    outer loop
      vertex -42.5779 15.4827 0
      vertex -42.5779 15.4827 15
      vertex -40.6737 16.3545 0
    endloop
  endfacet
  facet normal -0.416281 0.909236 0
    outer loop
      vertex -40.6737 16.3545 0
      vertex -42.5779 15.4827 15
      vertex -40.6737 16.3545 15
    endloop
  endfacet
  facet normal -0.435231 0.900319 0
    outer loop
      vertex -44.4635 14.5712 0
      vertex -44.4635 14.5712 15
      vertex -42.5779 15.4827 0
    endloop
  endfacet
  facet normal -0.435231 0.900319 0
    outer loop
      vertex -42.5779 15.4827 0
      vertex -44.4635 14.5712 15
      vertex -42.5779 15.4827 15
    endloop
  endfacet
  facet normal -0.45399 0.891007 0
    outer loop
      vertex -46.3296 13.6204 0
      vertex -46.3296 13.6204 15
      vertex -44.4635 14.5712 0
    endloop
  endfacet
  facet normal -0.45399 0.891007 0
    outer loop
      vertex -44.4635 14.5712 0
      vertex -46.3296 13.6204 15
      vertex -44.4635 14.5712 15
    endloop
  endfacet
  facet normal -0.472551 0.881303 0
    outer loop
      vertex -48.1754 12.6307 0
      vertex -48.1754 12.6307 15
      vertex -46.3296 13.6204 0
    endloop
  endfacet
  facet normal -0.472551 0.881303 0
    outer loop
      vertex -46.3296 13.6204 0
      vertex -48.1754 12.6307 15
      vertex -46.3296 13.6204 15
    endloop
  endfacet
  facet normal -0.490904 0.871214 0
    outer loop
      vertex -50 11.6025 0
      vertex -50 11.6025 15
      vertex -48.1754 12.6307 0
    endloop
  endfacet
  facet normal -0.490904 0.871214 0
    outer loop
      vertex -48.1754 12.6307 0
      vertex -50 11.6025 15
      vertex -48.1754 12.6307 15
    endloop
  endfacet
  facet normal -0.509041 0.860742 0
    outer loop
      vertex -51.8027 10.5364 0
      vertex -51.8027 10.5364 15
      vertex -50 11.6025 0
    endloop
  endfacet
  facet normal -0.509041 0.860742 0
    outer loop
      vertex -50 11.6025 0
      vertex -51.8027 10.5364 15
      vertex -50 11.6025 15
    endloop
  endfacet
  facet normal -0.526956 0.849893 0
    outer loop
      vertex -53.5827 9.43279 0
      vertex -53.5827 9.43279 15
      vertex -51.8027 10.5364 0
    endloop
  endfacet
  facet normal -0.526956 0.849893 0
    outer loop
      vertex -51.8027 10.5364 0
      vertex -53.5827 9.43279 15
      vertex -51.8027 10.5364 15
    endloop
  endfacet
  facet normal -0.544639 0.838671 0
    outer loop
      vertex -55.3392 8.29212 0
      vertex -55.3392 8.29212 15
      vertex -53.5827 9.43279 0
    endloop
  endfacet
  facet normal -0.544639 0.838671 0
    outer loop
      vertex -53.5827 9.43279 0
      vertex -55.3392 8.29212 15
      vertex -53.5827 9.43279 15
    endloop
  endfacet
  facet normal -0.562083 0.827081 0
    outer loop
      vertex -57.0714 7.11492 0
      vertex -57.0714 7.11492 15
      vertex -55.3392 8.29212 0
    endloop
  endfacet
  facet normal -0.562083 0.827081 0
    outer loop
      vertex -55.3392 8.29212 0
      vertex -57.0714 7.11492 15
      vertex -55.3392 8.29212 15
    endloop
  endfacet
  facet normal -0.579281 0.815128 0
    outer loop
      vertex -58.7785 5.9017 0
      vertex -58.7785 5.9017 15
      vertex -57.0714 7.11492 0
    endloop
  endfacet
  facet normal -0.579281 0.815128 0
    outer loop
      vertex -57.0714 7.11492 0
      vertex -58.7785 5.9017 15
      vertex -57.0714 7.11492 15
    endloop
  endfacet
  facet normal -0.596225 0.802818 0
    outer loop
      vertex -60.4599 4.65299 0
      vertex -60.4599 4.65299 15
      vertex -58.7785 5.9017 0
    endloop
  endfacet
  facet normal -0.596225 0.802818 0
    outer loop
      vertex -58.7785 5.9017 0
      vertex -60.4599 4.65299 15
      vertex -58.7785 5.9017 15
    endloop
  endfacet
  facet normal -0.612907 0.790155 0
    outer loop
      vertex -62.1148 3.36935 0
      vertex -62.1148 3.36935 15
      vertex -60.4599 4.65299 0
    endloop
  endfacet
  facet normal -0.612907 0.790155 0
    outer loop
      vertex -60.4599 4.65299 0
      vertex -62.1148 3.36935 15
      vertex -60.4599 4.65299 15
    endloop
  endfacet
  facet normal -0.629321 0.777146 0
    outer loop
      vertex -63.7424 2.05132 0
      vertex -63.7424 2.05132 15
      vertex -62.1148 3.36935 0
    endloop
  endfacet
  facet normal -0.629321 0.777146 0
    outer loop
      vertex -62.1148 3.36935 0
      vertex -63.7424 2.05132 15
      vertex -62.1148 3.36935 15
    endloop
  endfacet
  facet normal 0 -1 0
    outer loop
      vertex -46 9.5 6
      vertex -46 9.5 9
      vertex -49 9.5 9
    endloop
  endfacet
  facet normal -0 -1 -0
    outer loop
      vertex -49 9.5 6
      vertex -46 9.5 6
      vertex -49 9.5 9
    endloop
  endfacet
  facet normal 1 0 0
    outer loop
      vertex 46 9.5 6
      vertex 46 9.5 9
      vertex 46 0 9
    endloop
  endfacet
  facet normal 1 0 0
    outer loop
      vertex 46 0 6
      vertex 46 9.5 6
      vertex 46 0 9
    endloop
  endfacet
  facet normal 0 0 1
    outer loop
      vertex 49 0 6
      vertex 49 9.5 6
      vertex 46 9.5 6
    endloop
  endfacet
  facet normal 0 0 1
    outer loop
      vertex 46 0 6
      vertex 49 0 6
      vertex 46 9.5 6
    endloop
  endfacet
  facet normal -1 0 0
    outer loop
      vertex 49 9.5 9
      vertex 49 9.5 6
      vertex 49 0 9
    endloop
  endfacet
  facet normal -1 0 0
    outer loop
      vertex 49 0 9
      vertex 49 9.5 6
      vertex 49 0 6
    endloop
  endfacet
  facet normal 0 0 -1
    outer loop
      vertex 49 9.5 9
      vertex 49 0 9
      vertex 46 9.5 9
    endloop
  endfacet
  facet normal 0 0 -1
    outer loop
      vertex 46 9.5 9
      vertex 49 0 9
      vertex 46 0 9
    endloop
  endfacet
  facet normal 0 -1 0
    outer loop
      vertex 49 9.5 6
      vertex 49 9.5 9
      vertex 46 9.5 9
    endloop
  endfacet
  facet normal -0 -1 -0
    outer loop
      vertex 46 9.5 6
      vertex 49 9.5 6
      vertex 46 9.5 9
    endloop
  endfacet
endsolid OpenSCAD_Model
